<svg width="77" height="77" xmlns="http://www.w3.org/2000/svg">
  <path d="M38.214 0C48.757 0 58.3 4.272 65.206 11.18c6.906 6.905 11.223 16.45 11.223 26.99 0 10.542-4.317 20.13-11.223 27.035-6.907 6.909-16.45 11.18-26.992 11.18-10.54 0-20.129-4.271-27.036-11.18A38.148 38.148 0 010 38.17a1.94 1.94 0 011.954-1.954c1.09 0 2 .864 2 1.954 0 9.496 3.817 18.039 9.997 24.265 6.226 6.18 14.813 10.041 24.263 10.041 9.453 0 18.041-3.861 24.22-10.041 6.225-6.226 10.043-14.769 10.043-24.265 0-9.452-3.818-18.04-10.044-24.22C56.255 7.77 47.667 3.91 38.214 3.91c-2.09 0-4.088.18-6.088.544a36.41 36.41 0 00-5.144 1.342l-.717.25c-1.002.406-2.136-.137-2.5-1.139-.41-.998.137-2.134 1.135-2.544A41.09 41.09 0 0131.443.59C33.717.182 35.943 0 38.214 0zm-20.54 28.08H58.8l-9.952 33.081-1.044 3.545H28.626l-1.5-4.998-8.407-28.082-.5-1.68-.544-1.865zm29.809 27.357h-4.134l-.183 1.816-.226 2.455h3.272l1.27-4.27zm-7.178 0h-4.18l.226 1.816.228 2.455h3.317l.409-4.27zm-7.226 0h-4.09l.547 1.816.725 2.455h3.272l-.454-4.27zm16.722-7.86h-5.68l-.183 1.861-.317 3.453h4.59l1.59-5.315zm-8.723 0H35.35l.18 1.861.365 3.453h4.68l.502-5.315zm-8.771 0h-5.681l.547 1.861 1.044 3.453h4.635l-.545-5.315zm20.357-9.545h-7.588l-.683 6.998h6.18l2.091-6.998zm-10.634 0h-7.633l.182 1.864.545 5.134h6.226l.68-6.998zm-10.677 0h-7.59l.546 1.864 1.545 5.134h6.225l-.726-6.998zm22.9-5.27h-8.632l-.182 1.863-.092.908h8.089l.818-2.771zm-11.676 0h-8.68l.273 2.771h8.133l.274-2.771zm-11.725 0h-8.679l.547 1.863.27.908h8.136l-.274-2.771zM2.908 28.219a1.89 1.89 0 011.907 1.909 1.89 1.89 0 01-1.907 1.908c-1.045 0-1.862-.864-1.862-1.908 0-1.046.817-1.91 1.862-1.91zM19.994 6.77c.636.91.363 2.134-.546 2.727a35.795 35.795 0 00-6.862 5.906c-1.998 2.272-3.725 4.771-5.043 7.498-.5 1-1.682 1.365-2.636.908-1-.5-1.362-1.681-.908-2.635a36.222 36.222 0 015.23-7.857l.45-.504c2.226-2.544 4.771-4.725 7.634-6.588.908-.593 2.09-.363 2.681.545z" fill="#000" fill-rule="nonzero"/>
</svg>