<svg width="77" height="77" xmlns="http://www.w3.org/2000/svg"><path d="M53.431 35.532h-8.09l.093-.907.182-1.864h8.633l-.818 2.771zm-2.863 9.497h-6.18l.5-5.134.183-1.864h7.588l-2.091 6.998zm-2.361 7.861h-4.591l.317-3.453.182-1.862h5.681l-1.59 5.315zm-2 6.817h-3.272l.226-2.455.183-1.815h4.134l-1.271 4.27zm-3.91-24.175h-8.131l-.09-.907-.185-1.864h8.68l-.273 2.771zm-.952 9.497H35.12l-.545-5.134-.182-1.864h7.633l-.68 6.998zm-.773 7.861h-4.68l-.365-3.452-.18-1.862h5.726l-.501 5.314zm-.681 6.817h-3.317l-.228-2.455-.227-1.815h4.18l-.408 4.27zm-8.77 0h-.865l-.725-2.455-.547-1.815h4.09l.455 4.27H31.12zm-2.909-6.817l-1.044-3.453-.547-1.862h5.68l.546 5.315h-4.635zm-3.907-12.995l-.547-1.864h7.59l.726 6.998H25.85l-1.545-5.134zm-1.59-5.27l-.547-1.864h8.68l.273 2.771h-8.135l-.27-.907zm11.996-6.545H17.67l.545 1.865.5 1.68 8.406 28.082 1.5 4.998h19.177l1.044-3.545 8.543-28.399 1.409-4.681H34.71z" fill="#000" fill-rule="nonzero"/></svg>